PathFileType	4	(X/Y/Z)	D:\TRACE\v60_Jaco2_6-2-23\JustBodyDRS_Motion2_8-v60.trc
DataRate	CameraRate	NumFrames	NumMarkers	Units	OrigDataRate	OrigDataStartFrame	OrigNumFrames
100.00	100.00	      38	9	mm	100.00	3458	      6914
Frame#	Time	front left toe			Front right toe			aft left toe			aft right toe			Arm			FL body			FR body			AL Body			AR Body			
		X1	Y1	Z1	X2	Y2	Z2	X3	Y3	Z3	X4	Y4	Z4	X5	Y5	Z5	X6	Y6	Z6	X7	Y7	Z7	X8	Y8	Z8	X9	Y9	Z9	

3458	34.570	-208.74055	41.48658	-309.05090	141.60226	46.92588	-389.11536	-183.66849	17.65598	268.98282	202.20079	-1.74582	295.53366	-150.42236	1221.91052	-464.95721	-123.58149	589.79132	-479.09457	35.37871	590.73157	-491.46194	-52.35841	560.25677	463.57504	103.96106	554.97546	452.03333	
3459	34.580	-208.49586	42.06905	-308.98480	141.58093	48.27276	-389.07837	-182.89554	11.29157	268.99722	202.40263	-1.94765	295.55530	-151.43098	1223.05042	-464.29630	-124.74156	591.70288	-479.78528	34.80703	592.53430	-492.11319	-51.37722	559.55579	463.12607	104.41773	554.48401	451.54779	
3460	34.590	-208.37866	42.54350	-308.54648	140.79558	48.80001	-388.12466	-181.85394	2.80286	268.27591	202.47853	-2.14434	295.81207	-152.76880	1224.73975	-463.27914	-125.34934	593.32941	-479.97015	34.44073	594.26648	-492.59830	-50.69707	558.95435	462.63934	105.39317	554.31940	450.61185	
3461	34.600	-208.57994	43.25946	-308.40369	140.39304	49.96217	-387.66614	-182.23004	-8.72105	265.66757	202.53580	-2.37875	295.62753	-154.13878	1226.23767	-461.30829	-125.17664	594.52435	-479.95313	33.80071	595.61145	-493.18378	-49.72570	559.51880	461.97906	106.35114	554.27966	450.26172	
3462	34.610	-208.63091	43.95070	-307.94122	140.19022	50.44917	-387.36462	-185.30681	-4.86322	265.58844	201.81256	-2.19597	295.70404	-156.38603	1227.70068	-459.39264	-126.62846	595.80585	-480.51025	32.81866	596.19897	-494.07904	-48.55531	562.50049	461.73605	107.02229	556.33484	448.94080	
3463	34.620	-208.52571	47.21377	-308.76999	139.60062	49.84913	-385.82889	-183.20297	-4.89025	269.78860	202.40176	0.18225	294.78333	-157.76262	1229.21118	-458.82739	-127.83584	597.24597	-481.00732	32.17535	597.53430	-494.47061	-47.89596	564.01453	461.25543	108.53741	557.99042	448.48788	
3464	34.630	-204.77545	52.46854	-308.28641	139.67949	50.62876	-386.37997	-182.01842	-6.37551	268.86267	201.11087	3.76739	296.23322	-157.56726	1231.39673	-460.00458	-128.70885	599.05103	-481.21204	30.75666	599.88574	-495.39575	-46.58759	563.34961	460.77444	108.87366	557.61835	447.35275	
3465	34.640	-199.37523	58.51085	-304.68512	139.59949	51.15364	-386.33670	-183.53580	-5.64064	268.01694	200.85408	9.29040	299.69791	-156.18326	1233.41150	-461.33905	-129.11890	601.28766	-481.76727	29.67454	601.93848	-496.16605	-45.71381	562.17480	459.81757	110.44743	556.58350	446.12613	
3466	34.650	-196.97519	69.98361	-305.64401	139.35486	51.40639	-386.78702	-183.06207	-6.26138	269.44498	199.22311	18.64191	298.30066	-154.77174	1235.05029	-461.74078	-130.28006	603.36761	-482.69376	29.59572	603.96527	-497.62149	-44.81964	561.21490	458.55124	111.27162	555.13281	444.71201	
3467	34.660	-197.32480	81.15099	-306.74591	139.12688	51.58509	-386.80197	-183.29031	-6.19513	269.22055	198.65065	29.38081	295.29620	-153.46779	1236.22400	-460.27432	-130.34961	604.47986	-483.23193	28.58072	605.11359	-498.45026	-44.05620	560.58191	457.48929	112.04458	554.38855	443.30344	
3468	34.670	-200.96632	94.50450	-310.98547	139.06071	51.80868	-386.81836	-183.62723	-6.04185	269.22421	198.97017	41.42344	289.36636	-154.07797	1237.26770	-458.49585	-130.63600	605.78345	-484.71725	28.59640	606.51459	-499.63052	-43.20283	559.73499	456.31375	112.71243	553.54913	442.22800	
3469	34.680	-204.61713	108.64496	-315.59497	138.49425	51.77235	-386.74109	-183.92934	-6.40586	269.37720	201.55301	53.99073	283.04785	-155.15935	1238.84509	-456.33713	-130.84479	607.49078	-485.79709	29.03517	607.85669	-500.77075	-43.83245	558.04492	455.29202	112.42440	552.01318	441.09717	
3470	34.690	-207.68646	122.38682	-321.37448	138.35187	51.98804	-386.81116	-184.29243	-6.82528	269.23895	204.33179	65.63387	275.73486	-156.16158	1240.87866	-454.88104	-130.38956	609.07599	-486.35010	29.64133	609.07611	-501.31580	-44.04796	556.16675	454.37466	112.66978	549.83081	440.21326	
3471	34.700	-210.40448	135.89268	-327.00153	138.08778	52.25866	-386.80963	-184.50565	-7.27473	269.22592	206.22023	77.30164	269.08563	-156.14784	1242.38086	-453.57632	-130.07600	610.68884	-487.16693	29.32210	610.57428	-502.13995	-44.00302	554.18787	453.27570	112.41463	547.60907	439.14658	
3472	34.710	-212.97414	149.20256	-332.41693	137.87495	52.49643	-386.90344	-184.87183	-7.40003	269.34238	206.98405	88.12103	262.39651	-154.43820	1243.16370	-452.07782	-130.34460	612.10010	-488.02484	30.06944	612.19519	-502.97766	-44.17851	552.02344	452.58679	112.74985	545.78772	438.22504	
3473	34.720	-214.27492	161.31570	-337.22202	137.58296	52.75208	-387.03452	-185.21938	-7.56119	269.09216	206.04276	97.91758	256.59818	-152.59236	1243.94604	-451.09735	-130.23410	613.20764	-488.61951	29.78780	613.33844	-503.70044	-44.37837	550.22656	451.61673	112.51983	543.78448	437.45309	
3474	34.730	-215.36581	171.96828	-341.34744	137.40370	52.99872	-386.90872	-185.80511	-7.66523	269.37659	205.84891	108.26640	251.28120	-151.08766	1244.89551	-449.48499	-130.02602	614.52893	-489.12082	29.54592	614.29041	-503.84402	-44.08958	548.76208	451.62305	113.08046	542.18182	436.70236	
3475	34.740	-216.74950	178.98413	-344.06647	137.07175	53.21993	-386.79871	-186.48584	-7.75650	269.35641	205.79846	115.28732	247.31412	-150.35593	1246.18982	-447.83218	-130.09868	615.57611	-489.30124	29.39277	615.23541	-503.99408	-44.09988	546.93298	450.51605	112.77569	540.15912	436.12955	
3476	34.750	-218.09123	184.03319	-346.19315	136.43530	53.45478	-386.77493	-186.95712	-7.84032	269.34415	204.04651	118.26279	244.08786	-149.73680	1248.05017	-446.28656	-130.12564	616.70050	-489.60965	29.84575	616.12598	-504.58984	-44.60883	545.41895	449.97641	112.45323	538.32709	435.79587	
3477	34.760	-221.47969	186.89557	-347.33875	135.83372	53.55881	-386.88071	-187.76686	-8.30760	269.34122	204.25034	119.78073	241.76312	-149.06277	1249.14197	-445.11035	-129.69673	617.32501	-489.72656	30.13886	616.63910	-504.62094	-44.81339	544.07483	449.86832	112.37661	536.80267	435.69394	
3478	34.770	-222.82692	186.36127	-348.48474	135.67986	53.72397	-386.72220	-188.27542	-8.67971	269.49246	204.42781	117.70640	239.96417	-148.21213	1249.35583	-443.30502	-129.11008	618.19196	-489.79691	30.76660	617.02100	-504.54773	-46.99968	543.28674	449.79370	111.79848	535.60211	435.53116	
3479	34.780	-223.91690	183.88170	-349.02377	135.05702	54.00960	-386.47934	-188.75554	-8.85990	269.68152	203.55383	113.30326	238.62233	-146.91258	1249.50098	-442.46893	-128.79677	618.80530	-489.61176	30.87699	617.78888	-504.85934	-47.04464	542.60797	449.65390	112.12576	534.78882	435.82101	
3480	34.790	-224.94002	180.41479	-349.82471	134.63135	54.24613	-386.41577	-189.38951	-8.88269	269.85504	204.09805	108.25587	238.40918	-145.03554	1249.79395	-441.84686	-128.48915	619.50726	-489.30759	31.74004	618.40088	-504.11938	-46.26068	541.78662	449.86649	111.75101	533.49030	435.71802	
3481	34.800	-225.85930	175.95287	-350.55624	134.08255	54.49665	-386.19595	-189.91350	-9.06516	269.86755	203.29860	102.13719	237.90041	-143.15837	1250.63501	-441.39203	-128.28242	620.17975	-489.00995	31.25187	618.74304	-503.91971	-47.28429	541.08112	450.13712	111.19106	532.78021	436.09155	
3482	34.810	-223.99043	166.62395	-350.06808	133.60513	54.51466	-386.07153	-190.68617	-9.01961	269.98859	204.28778	95.95081	238.11374	-141.15810	1251.89734	-440.94058	-128.16762	620.63837	-488.70135	31.78574	619.01190	-503.46109	-45.61181	540.36462	450.54553	111.20154	531.89435	436.34122	
3483	34.820	-223.38535	157.18364	-350.00021	132.84811	54.45025	-386.09503	-191.18483	-9.05419	270.07471	205.22198	88.67300	238.29462	-140.24568	1252.54456	-439.66974	-127.71590	621.12268	-488.32477	32.14988	619.23773	-502.99814	-45.80324	539.76691	451.26407	110.91833	531.33020	436.69012	
3484	34.830	-223.70349	147.47714	-349.63431	132.28418	54.43924	-386.07291	-191.78059	-9.00433	270.13513	205.58287	80.40692	237.88713	-139.07674	1252.83545	-438.10086	-126.98064	621.49249	-487.78604	32.91998	619.60345	-502.37656	-45.51513	539.62854	451.94351	110.92630	530.62421	437.39603	
3485	34.840	-223.81281	136.75322	-349.08929	131.89166	54.33061	-385.98386	-192.36766	-9.01550	270.09375	207.27637	71.38697	238.34824	-138.41824	1253.12915	-436.66110	-126.67679	621.87830	-487.21179	32.86455	619.77283	-501.66653	-45.73782	539.26239	451.87131	110.77092	529.86755	437.89267	
3486	34.850	-223.52321	125.68317	-348.33133	131.41342	54.25496	-385.88474	-193.16394	-9.06037	270.13007	206.65752	61.72499	238.17235	-137.57661	1253.36255	-435.60550	-125.55114	622.21863	-486.38052	33.38495	620.02216	-501.22025	-45.48457	538.84167	452.39957	111.29811	529.51642	438.33563	
3487	34.860	-222.86078	114.63299	-347.59021	130.83705	54.23204	-385.73975	-193.58740	-9.16048	270.32401	207.76024	52.87170	238.54233	-136.17023	1253.55420	-434.71909	-125.83755	622.87781	-486.05029	34.18238	620.44409	-501.03320	-45.12893	538.58722	453.75336	111.54668	528.79742	438.72806	
3488	34.870	-221.52521	104.08164	-346.85983	129.85358	54.14281	-385.74771	-194.43396	-9.21028	270.36209	208.30191	43.32451	239.34608	-134.96265	1253.77856	-433.78665	-125.35661	623.10083	-485.34338	34.17773	620.23645	-499.37488	-44.81304	537.54425	453.81247	111.51142	527.91211	439.75070	
3489	34.880	-219.94725	93.90556	-345.34525	129.41890	54.14300	-385.69351	-195.06024	-9.30669	270.31091	209.41733	34.28057	240.42868	-133.80080	1254.15234	-432.43362	-124.76635	623.22015	-484.67914	34.38763	620.37109	-498.71198	-44.55132	536.91876	454.73688	112.24477	527.26221	440.29556	
3490	34.890	-218.26585	83.90997	-343.30334	128.99536	54.13196	-385.70074	-195.54996	-9.24005	270.36536	211.05270	25.78018	242.22919	-132.61327	1254.54980	-431.24872	-124.28171	623.66034	-483.79211	34.93053	620.51447	-497.95706	-43.89159	536.27203	455.33133	112.89455	526.50873	441.39941	
3491	34.900	-217.04738	74.61465	-340.59030	128.41351	53.93269	-385.82150	-196.21042	-9.22899	270.44595	212.79945	17.97813	244.24507	-131.63008	1254.51648	-429.81622	-123.67864	623.61743	-482.93817	35.59473	620.44537	-497.23453	-43.60125	535.86200	455.71677	113.18719	526.02173	441.89404	
3492	34.910	-215.65105	65.80493	-337.35419	127.65618	53.64146	-385.79724	-197.06999	-8.86188	270.48224	214.90048	10.72130	246.93379	-130.71741	1254.64966	-428.33728	-123.05402	623.81116	-482.22125	36.25358	620.67285	-497.05167	-42.83349	535.41187	456.48590	113.74658	525.56384	442.17603	
3493	34.920	-214.23175	59.04198	-334.22250	126.61620	53.37771	-385.85361	-197.87799	-8.73096	270.36230	216.45087	4.01777	249.59804	-129.95932	1254.73486	-427.10184	-122.55165	623.62689	-481.20422	37.34588	620.60706	-495.73865	-42.32737	534.52667	457.55075	114.43472	524.72681	443.42532	
3494	34.930	-214.77856	57.95441	-335.11932	126.08070	53.23206	-385.77673	-198.29665	-8.64097	270.50470	216.92989	-0.57215	251.21959	-128.88286	1254.63062	-425.78735	-121.74432	623.61603	-480.28412	37.90595	620.49219	-494.98746	-41.28919	533.92438	458.19974	115.29555	523.86133	444.11365	
3495	34.940	-215.48296	54.11011	-335.83438	125.37959	52.98857	-385.85440	-199.10968	-8.35674	270.57690	217.86575	-1.25455	249.03360	-128.12308	1254.46997	-424.72226	-120.94090	623.88190	-479.19818	38.71462	620.62195	-493.78131	-40.25975	533.25403	459.52570	116.24248	523.49396	445.14178	
